<?xml version="1.0" standalone="no"?>
<!DOCTYPE svg PUBLIC "-//W3C//DTD SVG 20010904//EN"
 "http://www.w3.org/TR/2001/REC-SVG-20010904/DTD/svg10.dtd">
<svg version="1.0" xmlns="http://www.w3.org/2000/svg"
 width="300.000000pt" height="300.000000pt" viewBox="0 0 300.000000 300.000000"
 preserveAspectRatio="xMidYMid meet">
<metadata>
Created by potrace 1.11, written by Peter Selinger 2001-2013
</metadata>
<g transform="translate(0.000000,300.000000) scale(0.100000,-0.100000)"
fill="#000000" stroke="none">
<path d="M1626 2143 c-16 -93 -30 -177 -31 -188 -2 -11 -6 -35 -9 -53 -6 -30
-4 -33 15 -30 16 2 23 11 25 28 1 14 5 68 8 120 4 52 9 106 11 120 7 44 17
170 13 170 -2 0 -17 -75 -32 -167z"/>
<path d="M1314 2270 c5 -15 10 -70 22 -215 4 -44 8 -89 9 -100 1 -11 3 -35 4
-52 1 -26 5 -33 21 -33 11 0 20 7 20 15 0 37 -63 381 -72 390 -6 7 -7 5 -4 -5z"/>
<path d="M1965 2218 c-8 -23 -96 -228 -141 -326 -13 -29 -22 -58 -19 -63 10
-15 32 -10 40 9 24 57 135 396 131 399 -2 3 -7 -6 -11 -19z"/>
<path d="M998 2215 c5 -11 35 -97 67 -192 62 -187 76 -215 96 -196 10 10 -5
52 -70 200 -45 103 -87 193 -93 198 -7 7 -7 4 0 -10z"/>
<path d="M1475 2048 c-13 -174 -13 -173 13 -174 23 -1 23 0 17 80 -10 138 -15
189 -19 193 -2 2 -7 -43 -11 -99z"/>
<path d="M804 1940 c117 -181 151 -220 163 -185 2 8 -245 337 -278 370 -6 6
46 -78 115 -185z"/>
<path d="M2142 1943 c-106 -138 -140 -188 -130 -194 7 -5 18 -7 23 -6 12 4
263 387 253 387 -2 0 -67 -84 -146 -187z"/>
<path d="M1216 2028 c7 -46 17 -104 20 -130 5 -37 11 -48 25 -48 10 0 20 4 23
8 5 9 -62 231 -74 245 -4 5 -1 -29 6 -75z"/>
<path d="M1721 1988 c-18 -57 -35 -108 -37 -115 -5 -10 33 -30 41 -21 3 3 7
26 20 103 2 11 6 42 10 69 3 28 8 53 11 58 3 4 1 8 -4 8 -4 0 -23 -46 -41
-102z"/>
<path d="M940 2019 c0 -4 21 -58 48 -120 37 -91 51 -114 65 -111 25 5 22 15
-24 90 -22 37 -45 76 -52 87 -27 44 -37 59 -37 54z"/>
<path d="M2012 1998 c-7 -7 -12 -15 -12 -19 0 -4 -22 -44 -50 -88 -27 -44 -50
-83 -50 -85 0 -3 8 -10 19 -15 16 -9 21 -2 46 62 16 40 32 77 35 82 8 12 30
75 26 75 -1 0 -7 -5 -14 -12z"/>
<path d="M589 1798 c153 -153 177 -174 193 -164 20 12 25 7 -92 106 -29 25
-58 50 -64 55 -6 6 -40 35 -76 65 -36 30 -67 57 -70 60 -3 3 -19 16 -35 30
-17 13 49 -55 144 -152z"/>
<path d="M2453 1884 c-85 -72 -164 -139 -203 -174 -14 -12 -36 -31 -49 -41
-21 -17 -23 -22 -10 -34 12 -12 37 8 182 151 92 90 165 164 163 164 -3 0 -40
-30 -83 -66z"/>
<path d="M707 1889 c26 -48 137 -199 147 -199 39 1 28 21 -61 115 -52 55 -91
93 -86 84z"/>
<path d="M2175 1803 c-44 -46 -81 -88 -83 -93 -2 -5 5 -13 15 -19 16 -8 24 -2
54 41 19 28 38 59 44 69 5 11 13 19 17 19 5 0 8 5 8 12 0 6 10 22 22 35 12 13
17 23 12 22 -5 0 -45 -39 -89 -86z"/>
<path d="M1388 1825 c-2 -1 -23 -5 -48 -8 -225 -27 -448 -137 -615 -303 -107
-105 -141 -151 -210 -278 -36 -66 -88 -212 -99 -276 l-6 -35 1073 0 1072 0 -2
39 c-2 21 -15 73 -29 115 -129 374 -436 646 -820 726 -66 14 -306 29 -316 20z"/>
<path d="M2548 1647 c-120 -67 -218 -127 -218 -133 0 -32 42 -12 216 101 188
123 234 154 224 154 -3 -1 -103 -55 -222 -122z"/>
<path d="M225 1753 c6 -6 97 -68 204 -137 155 -102 196 -124 207 -115 11 9 11
15 3 25 -6 8 -15 14 -20 14 -5 0 -38 18 -74 40 -36 22 -68 40 -71 40 -3 0 -36
17 -72 38 -121 70 -187 105 -177 95z"/>
<path d="M588 1650 c52 -49 97 -90 102 -90 17 0 21 35 5 45 -9 6 -57 38 -108
73 l-92 63 93 -91z"/>
<path d="M2354 1658 c-83 -59 -99 -74 -88 -85 7 -7 16 -13 19 -13 4 0 39 30
77 68 39 37 77 73 84 80 13 12 18 23 12 22 -2 -1 -49 -33 -104 -72z"/>
<path d="M377 1517 c29 -17 80 -49 113 -70 58 -37 80 -40 80 -13 0 12 -34 30
-174 90 -77 34 -82 33 -19 -7z"/>
<path d="M2512 1497 c-76 -35 -112 -56 -110 -66 2 -8 8 -16 13 -18 6 -1 59 29
119 67 61 39 106 70 100 69 -5 -1 -60 -24 -122 -52z"/>
<path d="M2693 1456 c-226 -75 -269 -97 -230 -112 11 -4 135 42 242 91 17 7
77 32 135 55 98 38 126 52 104 49 -5 -1 -118 -38 -251 -83z"/>
<path d="M75 1514 c17 -7 119 -50 228 -95 185 -75 235 -87 225 -57 -4 10 -459
169 -478 167 -3 0 9 -7 25 -15z"/>
<path d="M230 1340 c0 -3 51 -26 114 -51 113 -46 114 -47 123 -25 10 20 5 22
-113 51 -68 17 -124 28 -124 25z"/>
<path d="M2625 1317 c-66 -17 -122 -32 -124 -34 -2 -2 0 -12 5 -22 9 -18 15
-17 129 31 168 70 167 71 -10 25z"/>
<path d="M2979 1276 c-2 -2 -26 -7 -54 -10 -27 -3 -63 -8 -80 -11 -16 -2 -94
-14 -172 -26 -134 -20 -142 -23 -132 -41 6 -11 17 -17 27 -14 18 5 350 75 395
83 15 3 30 9 33 14 5 9 -9 13 -17 5z"/>
<path d="M2 1265 c4 -5 38 -14 75 -22 38 -7 77 -15 88 -18 171 -39 260 -53
267 -42 11 18 10 27 -4 28 -7 0 -22 2 -33 4 -11 2 -54 8 -95 14 -41 6 -86 13
-100 16 -14 3 -45 7 -70 10 -25 3 -65 8 -90 11 -25 4 -42 3 -38 -1z"/>
<path d="M2670 1115 c-83 -9 -95 -12 -92 -27 2 -10 9 -18 15 -18 24 0 207 44
207 50 0 8 -17 7 -130 -5z"/>
<path d="M2818 1123 c7 -3 16 -2 19 1 4 3 -2 6 -13 5 -11 0 -14 -3 -6 -6z"/>
<path d="M265 1091 c98 -25 111 -26 122 -13 7 9 11 17 10 19 -6 5 -71 12 -157
17 l-85 4 110 -27z"/>
<path d="M48 1012 c-84 -5 -51 -22 45 -23 50 -1 132 -2 182 -3 79 -1 90 1 93
17 3 17 -5 18 -135 15 -76 -2 -159 -4 -185 -6z"/>
<path d="M2602 1003 c4 -19 0 -19 291 -13 120 2 148 19 35 21 -40 1 -131 3
-201 5 -119 4 -128 3 -125 -13z"/>
</g>
</svg>
